<svg xmlns="http://www.w3.org/2000/svg" width="32" height="32" viewBox="0 0 24 24">
    <!-- Icon from Material Symbols Light by Google - https://github.com/google/material-design-icons/blob/master/LICENSE -->
    <path fill="white" d="m19.4 9.375l-.688-.688l.48-.506q.193-.192.193-.433q0-.24-.193-.433l-2.508-2.507q-.192-.192-.432-.192t-.433.192l-.506.48l-.713-.713l.558-.583q.44-.44 1.079-.427t1.079.452l2.667 2.668q.44.44.44 1.066t-.44 1.066zM8.842 19.958q-.44.44-1.066.44t-1.066-.44l-2.59-2.59q-.46-.46-.46-1.144t.46-1.143l.48-.481l.714.714l-.487.48q-.192.193-.192.433t.192.433l2.514 2.513q.192.193.432.193t.433-.193l.48-.486l.714.713zm9.733-6.804l1.137-1.137q.192-.192.192-.442t-.192-.442l-6.845-6.844q-.192-.193-.442-.193t-.442.192l-1.137 1.137q-.192.192-.192.433q0 .24.192.433l6.864 6.863q.192.192.432.192t.433-.192m-6.558 6.558l1.137-1.143q.192-.192.192-.432t-.192-.433l-6.858-6.858q-.192-.192-.433-.192q-.24 0-.432.192l-1.143 1.137q-.192.192-.192.442t.192.442l6.845 6.844q.192.193.442.193t.442-.192m-.708-5.273l3.135-3.13l-1.754-1.753l-3.129 3.135zm1.402 5.98q-.459.46-1.136.46t-1.137-.46l-6.857-6.857q-.46-.46-.46-1.137t.46-1.136l1.136-1.156q.46-.46 1.144-.46t1.143.46l1.844 1.844l3.135-3.135l-1.844-1.838q-.46-.46-.46-1.146t.46-1.146l1.155-1.156q.46-.46 1.143-.46t1.144.46l6.863 6.863q.46.46.46 1.144t-.46 1.143l-1.155 1.156q-.46.46-1.147.46t-1.146-.46l-1.838-1.845l-3.135 3.135l1.844 1.844q.46.46.46 1.144t-.46 1.143z"/>
</svg>